<svg xmlns="http://www.w3.org/2000/svg" width="100%" height="100%" viewBox="0 0 1200 400"><defs><linearGradient id="bg-grad" x1="0%" x2="100%" y1="0%" y2="100%"><stop offset="0%" stop-color="#0F172A"/><stop offset="50%" stop-color="#1E1B4B"/><stop offset="100%" stop-color="#0F172A"/></linearGradient><linearGradient id="glow-grad" x1="0%" x2="100%" y1="0%" y2="0%"><stop offset="0%" stop-color="#6366F1"/><stop offset="50%" stop-color="#8B5CF6"/><stop offset="100%" stop-color="#EC4899"/></linearGradient><linearGradient id="card-grad" x1="0%" x2="100%" y1="0%" y2="100%"><stop offset="0%" stop-color="#1E293B" stop-opacity=".8"/><stop offset="100%" stop-color="#0F172A" stop-opacity=".9"/></linearGradient><style>@keyframes pulseGlow{0%{opacity:.4;transform:scale(1)}50%{opacity:.8;transform:scale(1.05)}}@keyframes waveFlow{0%{stroke-dashoffset:1000}}@keyframes floatCard{0%{transform:translateY(0)}50%{transform:translateY(-8px)}}@keyframes barGrow{0%{transform:scaleY(.95)}50%{transform:scaleY(1.05)}}.animated-glow{animation:pulseGlow 6s ease-in-out infinite;transform-origin:center}.animated-card{animation:floatCard 5s ease-in-out infinite}.animated-card-delayed{animation:floatCard 6s ease-in-out infinite 1.5s}.animated-line{stroke-dasharray:20 10;animation:waveFlow 25s linear infinite}.animated-bar{transform-origin:bottom;animation:barGrow 4s ease-in-out infinite}</style></defs><rect width="1200" height="400" fill="url(#bg-grad)" rx="16"/><g stroke="#334155" stroke-width=".5" opacity=".3"><line x1="0" x2="1200" y1="100" y2="100"/><line x1="0" x2="1200" y1="200" y2="200"/><line x1="0" x2="1200" y1="300" y2="300"/><line x1="300" x2="300" y1="0" y2="400"/><line x1="600" x2="600" y1="0" y2="400"/><line x1="900" x2="900" y1="0" y2="400"/></g><circle cx="200" cy="100" r="180" fill="#4F46E5" class="animated-glow" opacity=".15"/><circle cx="1000" cy="300" r="200" fill="#EC4899" class="animated-glow" opacity=".12"/><g class="animated-card" opacity=".65"><rect width="130" height="45" x="820" y="60" fill="url(#card-grad)" stroke="#6366F1" stroke-width="1.5" rx="8"/><text x="885" y="87" fill="#E2E8F0" font-family="system-ui, sans-serif" font-size="12" font-weight="600" text-anchor="middle">Subsidiary A (USD)</text><rect width="130" height="45" x="1000" y="60" fill="url(#card-grad)" stroke="#8B5CF6" stroke-width="1.5" rx="8"/><text x="1065" y="87" fill="#E2E8F0" font-family="system-ui, sans-serif" font-size="12" font-weight="600" text-anchor="middle">Subsidiary B (EUR)</text><rect width="150" height="50" x="910" y="150" fill="url(#card-grad)" stroke="#EC4899" stroke-width="1.5" rx="10"/><text x="985" y="173" fill="#F472B6" font-family="system-ui, sans-serif" font-size="11" font-weight="bold" text-anchor="middle">⚡ FX &amp; Eliminations</text><text x="985" y="189" fill="#94A3B8" font-family="system-ui, sans-serif" font-size="10" text-anchor="middle">Intercompany Reconcilation</text><path fill="none" stroke="#818CF8" stroke-width="2" d="M 885 105 L 945 150" class="animated-line"/><path fill="none" stroke="#C084FC" stroke-width="2" d="M 1065 105 L 1025 150" class="animated-line"/></g><g class="animated-card-delayed" opacity=".75" transform="translate(850, 240)"><rect width="280" height="120" x="0" y="0" fill="url(#card-grad)" stroke="#334155" stroke-width="1.5" rx="12"/><text x="20" y="30" fill="#94A3B8" font-family="system-ui, sans-serif" font-size="12" font-weight="600">Consolidated Financial Roll-up</text><rect width="24" height="45" x="30" y="50" fill="#6366F1" class="animated-bar" rx="4"/><rect width="24" height="55" x="70" y="40" fill="#8B5CF6" class="animated-bar" rx="4"/><rect width="24" height="60" x="110" y="35" fill="#EC4899" class="animated-bar" rx="4"/><rect width="24" height="70" x="150" y="25" fill="#10B981" class="animated-bar" rx="4"/><path fill="none" stroke="#34D399" stroke-linecap="round" stroke-width="3" d="M 42 70 L 82 60 L 122 55 L 162 40 L 220 30"/><circle cx="220" cy="30" r="5" fill="#34D399"/></g><g transform="translate(70, 0)"><rect width="260" height="32" x="0" y="65" fill="#1E1B4B" stroke="#6366F1" stroke-width="1.5" rx="16"/><text x="130" y="86" fill="#A5B4FC" font-family="system-ui, -apple-system, sans-serif" font-size="12" font-weight="bold" letter-spacing="1" text-anchor="middle">📊 AWESOME EPM &amp; CPM ECOSYSTEM</text><text x="0" y="150" fill="#FFF" font-family="system-ui, -apple-system, sans-serif" font-size="38" font-weight="900" letter-spacing="-.5">Awesome Financial</text><text x="0" y="198" fill="url(#glow-grad)" font-family="system-ui, -apple-system, sans-serif" font-size="38" font-weight="900" letter-spacing="-.5">Consolidation Platform</text><text x="0" y="245" fill="#94A3B8" font-family="system-ui, -apple-system, sans-serif" font-size="16" font-weight="400"><tspan x="0" dy="0">Curated list of SaaS platforms &amp; open-source projects for multi-entity consolidation,</tspan> <tspan x="0" dy="24">intercompany eliminations, currency translation, and close-to-report workflows.</tspan></text><g transform="translate(0, 310)"><rect width="145" height="34" x="0" y="0" fill="#1E293B" stroke="#334155" stroke-width="1" rx="8"/><text x="72.5" y="21" fill="#CBD5E1" font-family="system-ui, sans-serif" font-size="12" font-weight="600" text-anchor="middle">🌐 Multi-Entity GAAP/IFRS</text><rect width="155" height="34" x="157" y="0" fill="#1E293B" stroke="#334155" stroke-width="1" rx="8"/><text x="234.5" y="21" fill="#CBD5E1" font-family="system-ui, sans-serif" font-size="12" font-weight="600" text-anchor="middle">⚡ Intercompany Matching</text><rect width="140" height="34" x="324" y="0" fill="#1E293B" stroke="#334155" stroke-width="1" rx="8"/><text x="394" y="21" fill="#CBD5E1" font-family="system-ui, sans-serif" font-size="12" font-weight="600" text-anchor="middle">💱 FX Translation</text></g></g></svg>